<svg width="96" height="36" viewBox="0 0 96 36" fill="none" xmlns="http://www.w3.org/2000/svg">
<rect width="96" height="36" rx="18" fill="#61FF70"/>
<path d="M38.7637 21.5425V23H33.4097V21.5425H38.7637ZM33.9224 12.3359V23H32.084V12.3359H33.9224ZM39.6719 19.1255V18.957C39.6719 18.3857 39.7549 17.856 39.9209 17.3677C40.0869 16.8745 40.3262 16.4473 40.6387 16.0859C40.9561 15.7197 41.3418 15.4365 41.7959 15.2363C42.2549 15.0312 42.7725 14.9287 43.3486 14.9287C43.9297 14.9287 44.4473 15.0312 44.9014 15.2363C45.3604 15.4365 45.7485 15.7197 46.0659 16.0859C46.3833 16.4473 46.625 16.8745 46.791 17.3677C46.957 17.856 47.04 18.3857 47.04 18.957V19.1255C47.04 19.6968 46.957 20.2266 46.791 20.7148C46.625 21.2031 46.3833 21.6304 46.0659 21.9966C45.7485 22.3579 45.3628 22.6411 44.9087 22.8462C44.4546 23.0464 43.9395 23.1465 43.3633 23.1465C42.7822 23.1465 42.2622 23.0464 41.8032 22.8462C41.3491 22.6411 40.9634 22.3579 40.646 21.9966C40.3286 21.6304 40.0869 21.2031 39.9209 20.7148C39.7549 20.2266 39.6719 19.6968 39.6719 19.1255ZM41.437 18.957V19.1255C41.437 19.4819 41.4736 19.8188 41.5469 20.1362C41.6201 20.4536 41.7349 20.7319 41.8911 20.9712C42.0474 21.2104 42.2476 21.3984 42.4917 21.5352C42.7358 21.6719 43.0264 21.7402 43.3633 21.7402C43.6904 21.7402 43.9736 21.6719 44.2129 21.5352C44.457 21.3984 44.6572 21.2104 44.8135 20.9712C44.9697 20.7319 45.0845 20.4536 45.1577 20.1362C45.2358 19.8188 45.2749 19.4819 45.2749 19.1255V18.957C45.2749 18.6055 45.2358 18.2734 45.1577 17.9609C45.0845 17.6436 44.9673 17.3628 44.8062 17.1187C44.6499 16.8745 44.4497 16.6841 44.2056 16.5474C43.9663 16.4058 43.6807 16.335 43.3486 16.335C43.0166 16.335 42.7285 16.4058 42.4844 16.5474C42.2451 16.6841 42.0474 16.8745 41.8911 17.1187C41.7349 17.3628 41.6201 17.6436 41.5469 17.9609C41.4736 18.2734 41.437 18.6055 41.437 18.957ZM53.5952 15.0752H55.1992V22.7803C55.1992 23.4932 55.0479 24.0986 54.7451 24.5967C54.4424 25.0947 54.02 25.4731 53.478 25.7319C52.936 25.9956 52.3086 26.1274 51.5957 26.1274C51.293 26.1274 50.9561 26.0835 50.585 25.9956C50.2188 25.9077 49.8623 25.7661 49.5156 25.5708C49.1738 25.3804 48.8882 25.1289 48.6587 24.8164L49.4863 23.7764C49.7695 24.1133 50.082 24.3599 50.4238 24.5161C50.7656 24.6724 51.1245 24.7505 51.5005 24.7505C51.9058 24.7505 52.25 24.6748 52.5332 24.5234C52.8213 24.377 53.0435 24.1597 53.1997 23.8716C53.356 23.5835 53.4341 23.2319 53.4341 22.8169V16.8696L53.5952 15.0752ZM48.2119 19.1255V18.9717C48.2119 18.3711 48.2852 17.8242 48.4316 17.3311C48.5781 16.833 48.7881 16.4058 49.0615 16.0493C49.335 15.688 49.667 15.4121 50.0576 15.2217C50.4482 15.0264 50.8901 14.9287 51.3833 14.9287C51.896 14.9287 52.333 15.0215 52.6943 15.207C53.0605 15.3926 53.3657 15.6587 53.6099 16.0054C53.854 16.3472 54.0444 16.7573 54.1812 17.2358C54.3228 17.7095 54.4277 18.2368 54.4961 18.8179V19.3086C54.4326 19.875 54.3252 20.3926 54.1738 20.8613C54.0225 21.3301 53.8223 21.7354 53.5732 22.0771C53.3242 22.4189 53.0166 22.6826 52.6504 22.8682C52.2891 23.0537 51.8618 23.1465 51.3687 23.1465C50.8853 23.1465 50.4482 23.0464 50.0576 22.8462C49.6719 22.646 49.3398 22.3652 49.0615 22.0039C48.7881 21.6426 48.5781 21.2178 48.4316 20.7295C48.2852 20.2363 48.2119 19.7017 48.2119 19.1255ZM49.9771 18.9717V19.1255C49.9771 19.4868 50.0112 19.8237 50.0796 20.1362C50.1528 20.4487 50.2627 20.7246 50.4092 20.9639C50.5605 21.1982 50.751 21.3838 50.9805 21.5205C51.2148 21.6523 51.4907 21.7183 51.8081 21.7183C52.2231 21.7183 52.5625 21.6304 52.8262 21.4546C53.0947 21.2788 53.2998 21.042 53.4414 20.7441C53.5879 20.4414 53.6904 20.1045 53.749 19.7334V18.4077C53.7197 18.1196 53.6587 17.8511 53.5659 17.6021C53.478 17.353 53.3584 17.1357 53.207 16.9502C53.0557 16.7598 52.8652 16.6133 52.6357 16.5107C52.4062 16.4033 52.1353 16.3496 51.8228 16.3496C51.5054 16.3496 51.2295 16.418 50.9951 16.5547C50.7607 16.6914 50.5679 16.8794 50.4165 17.1187C50.27 17.3579 50.1602 17.6362 50.0869 17.9536C50.0137 18.271 49.9771 18.6104 49.9771 18.9717ZM58.9199 15.0752V23H57.1475V15.0752H58.9199ZM57.0303 12.9951C57.0303 12.7266 57.1182 12.5044 57.2939 12.3286C57.4746 12.1479 57.7236 12.0576 58.041 12.0576C58.3535 12.0576 58.6001 12.1479 58.7808 12.3286C58.9614 12.5044 59.0518 12.7266 59.0518 12.9951C59.0518 13.2588 58.9614 13.4785 58.7808 13.6543C58.6001 13.8301 58.3535 13.918 58.041 13.918C57.7236 13.918 57.4746 13.8301 57.2939 13.6543C57.1182 13.4785 57.0303 13.2588 57.0303 12.9951ZM62.604 16.7671V23H60.8389V15.0752H62.5015L62.604 16.7671ZM62.2891 18.7446L61.7178 18.7373C61.7227 18.1758 61.8008 17.6606 61.9521 17.1919C62.1084 16.7231 62.3232 16.3203 62.5967 15.9834C62.875 15.6465 63.207 15.3877 63.5928 15.207C63.9785 15.0215 64.4082 14.9287 64.8818 14.9287C65.2627 14.9287 65.6069 14.9824 65.9146 15.0898C66.2271 15.1924 66.4932 15.3608 66.7129 15.5952C66.9375 15.8296 67.1084 16.1348 67.2256 16.5107C67.3428 16.8818 67.4014 17.3384 67.4014 17.8804V23H65.6289V17.873C65.6289 17.4922 65.5728 17.1919 65.4604 16.9722C65.353 16.7476 65.1943 16.5889 64.9844 16.4961C64.7793 16.3984 64.5229 16.3496 64.2153 16.3496C63.9126 16.3496 63.6416 16.4131 63.4023 16.54C63.1631 16.667 62.9604 16.8403 62.7944 17.0601C62.6333 17.2798 62.5088 17.5337 62.4209 17.8218C62.333 18.1099 62.2891 18.4175 62.2891 18.7446Z" fill="#252525"/>
</svg>
