<?xml version="1.0" encoding="iso-8859-1"?>
<!-- Generator: Adobe Illustrator 16.0.0, SVG Export Plug-In . SVG Version: 6.00 Build 0)  -->
<!DOCTYPE svg PUBLIC "-//W3C//DTD SVG 1.1//EN" "http://www.w3.org/Graphics/SVG/1.1/DTD/svg11.dtd">
<svg version="1.1" id="Search" xmlns="http://www.w3.org/2000/svg" xmlns:xlink="http://www.w3.org/1999/xlink" x="0px" y="0px"
	 width="1024px" height="768px" viewBox="0 0 1024 768" style="enable-background:new 0 0 1024 768;" xml:space="preserve">
<path style="fill:#808080;" d="M891.288,706.752L721.557,537.021c47.941-58.119,73.995-130.421,73.995-206.578
	c0-86.949-33.761-168.504-95.276-230.012C638.92,38.918,557.216,5.157,470.423,5.157c-86.792,0-168.504,33.761-230.012,95.274
	c-61.513,61.357-95.274,143.062-95.274,230.012c0,86.792,33.762,168.497,95.274,230.01c61.358,61.357,143.063,95.276,230.012,95.276
	c76.307,0,148.616-26.06,206.578-74.002L846.73,751.307c12.338,12.338,32.226,12.338,44.556,0
	C903.625,738.977,903.625,719.089,891.288,706.752L891.288,706.752z M284.961,515.748c-49.638-49.487-76.924-115.315-76.924-185.306
	c0-69.992,27.287-135.978,76.771-185.461c49.487-49.487,115.314-76.775,185.457-76.775c69.991,0,135.978,27.288,185.464,76.775
	c49.487,49.483,76.774,115.312,76.774,185.461c0,69.991-27.287,135.969-76.774,185.456
	c-49.485,49.485-115.473,76.773-185.464,76.773S334.445,565.385,284.961,515.748L284.961,515.748z"/>
</svg>
