<svg width="276" height="46" viewBox="0 0 276 46" fill="none" xmlns="http://www.w3.org/2000/svg">
<path d="M0.515625 2.34375H16.8926C20.1543 2.34375 22.9766 2.83203 25.3594 3.80859C27.7617 4.78516 29.6074 6.23047 30.8965 8.14453C32.1855 10.0586 32.8301 12.4219 32.8301 15.2344C32.8301 17.5781 32.4492 19.5703 31.6875 21.2109C30.9258 22.8516 29.8516 24.209 28.4648 25.2832C27.0977 26.3574 25.4961 27.2266 23.6602 27.8906L20.5547 29.5898H6.60938L6.55078 22.1777H16.9219C18.3477 22.1777 19.5293 21.9238 20.4668 21.416C21.4043 20.9082 22.1074 20.1953 22.5762 19.2773C23.0645 18.3398 23.3086 17.2461 23.3086 15.9961C23.3086 14.707 23.0645 13.5938 22.5762 12.6562C22.0879 11.7188 21.3652 11.0059 20.4082 10.5176C19.4707 10.0098 18.2988 9.75586 16.8926 9.75586H10.0664V45H0.515625V2.34375ZM24.1289 45L14.5488 26.0449L24.627 26.0156L34.3535 44.5605V45H24.1289ZM37.5176 29.4727V28.8574C37.5176 26.5332 37.8496 24.3945 38.5137 22.4414C39.1777 20.4688 40.1543 18.7598 41.4434 17.3145C42.7324 15.8691 44.3145 14.7461 46.1895 13.9453C48.0645 13.125 50.2129 12.7148 52.6348 12.7148C55.0957 12.7148 57.2637 13.125 59.1387 13.9453C61.0332 14.7461 62.625 15.8691 63.9141 17.3145C65.2031 18.7598 66.1797 20.4688 66.8438 22.4414C67.5078 24.3945 67.8398 26.5332 67.8398 28.8574V29.4727C67.8398 31.7773 67.5078 33.916 66.8438 35.8887C66.1797 37.8418 65.2031 39.5508 63.9141 41.0156C62.625 42.4609 61.043 43.584 59.168 44.3848C57.293 45.1855 55.1348 45.5859 52.6934 45.5859C50.2715 45.5859 48.1133 45.1855 46.2188 44.3848C44.3242 43.584 42.7324 42.4609 41.4434 41.0156C40.1543 39.5508 39.1777 37.8418 38.5137 35.8887C37.8496 33.916 37.5176 31.7773 37.5176 29.4727ZM46.6875 28.8574V29.4727C46.6875 30.7227 46.7852 31.8945 46.9805 32.9883C47.1953 34.082 47.5371 35.0391 48.0059 35.8594C48.4746 36.6797 49.0898 37.3242 49.8516 37.793C50.6328 38.2422 51.5801 38.4668 52.6934 38.4668C53.8066 38.4668 54.7441 38.2422 55.5059 37.793C56.2676 37.3242 56.8828 36.6797 57.3516 35.8594C57.8203 35.0391 58.1523 34.082 58.3477 32.9883C58.5625 31.8945 58.6699 30.7227 58.6699 29.4727V28.8574C58.6699 27.627 58.5625 26.4746 58.3477 25.4004C58.1523 24.3066 57.8203 23.3398 57.3516 22.5C56.8828 21.6602 56.2578 21.0059 55.4766 20.5371C54.7148 20.0684 53.7676 19.834 52.6348 19.834C51.541 19.834 50.6133 20.0684 49.8516 20.5371C49.0898 21.0059 48.4746 21.6602 48.0059 22.5C47.5371 23.3398 47.1953 24.3066 46.9805 25.4004C46.7852 26.4746 46.6875 27.627 46.6875 28.8574ZM71.3262 29.4727V28.8574C71.3262 26.5332 71.6582 24.3945 72.3223 22.4414C72.9863 20.4688 73.9629 18.7598 75.252 17.3145C76.541 15.8691 78.123 14.7461 79.998 13.9453C81.873 13.125 84.0215 12.7148 86.4434 12.7148C88.9043 12.7148 91.0723 13.125 92.9473 13.9453C94.8418 14.7461 96.4336 15.8691 97.7227 17.3145C99.0117 18.7598 99.9883 20.4688 100.652 22.4414C101.316 24.3945 101.648 26.5332 101.648 28.8574V29.4727C101.648 31.7773 101.316 33.916 100.652 35.8887C99.9883 37.8418 99.0117 39.5508 97.7227 41.0156C96.4336 42.4609 94.8516 43.584 92.9766 44.3848C91.1016 45.1855 88.9434 45.5859 86.502 45.5859C84.0801 45.5859 81.9219 45.1855 80.0273 44.3848C78.1328 43.584 76.541 42.4609 75.252 41.0156C73.9629 39.5508 72.9863 37.8418 72.3223 35.8887C71.6582 33.916 71.3262 31.7773 71.3262 29.4727ZM80.4961 28.8574V29.4727C80.4961 30.7227 80.5938 31.8945 80.7891 32.9883C81.0039 34.082 81.3457 35.0391 81.8145 35.8594C82.2832 36.6797 82.8984 37.3242 83.6602 37.793C84.4414 38.2422 85.3887 38.4668 86.502 38.4668C87.6152 38.4668 88.5527 38.2422 89.3145 37.793C90.0762 37.3242 90.6914 36.6797 91.1602 35.8594C91.6289 35.0391 91.9609 34.082 92.1562 32.9883C92.3711 31.8945 92.4785 30.7227 92.4785 29.4727V28.8574C92.4785 27.627 92.3711 26.4746 92.1562 25.4004C91.9609 24.3066 91.6289 23.3398 91.1602 22.5C90.6914 21.6602 90.0664 21.0059 89.2852 20.5371C88.5234 20.0684 87.5762 19.834 86.4434 19.834C85.3496 19.834 84.4219 20.0684 83.6602 20.5371C82.8984 21.0059 82.2832 21.6602 81.8145 22.5C81.3457 23.3398 81.0039 24.3066 80.7891 25.4004C80.5938 26.4746 80.4961 27.627 80.4961 28.8574ZM115.623 19.9512V45H106.482V13.3008H115.066L115.623 19.9512ZM114.451 28.0371L112.137 28.0957C112.137 25.8691 112.4 23.8281 112.928 21.9727C113.475 20.0977 114.266 18.4668 115.301 17.0801C116.336 15.6934 117.615 14.6191 119.139 13.8574C120.682 13.0957 122.459 12.7148 124.471 12.7148C125.877 12.7148 127.156 12.9297 128.309 13.3594C129.461 13.7695 130.447 14.4238 131.268 15.3223C132.107 16.2012 132.752 17.3535 133.201 18.7793C133.65 20.1855 133.875 21.875 133.875 23.8477V45H124.734V24.9609C124.734 23.5547 124.559 22.4902 124.207 21.7676C123.875 21.0254 123.387 20.5176 122.742 20.2441C122.098 19.9707 121.326 19.834 120.428 19.834C119.451 19.834 118.582 20.0488 117.82 20.4785C117.078 20.8887 116.453 21.4648 115.945 22.207C115.438 22.9492 115.057 23.8184 114.803 24.8145C114.568 25.8105 114.451 26.8848 114.451 28.0371ZM132.938 27.5684L130.037 27.8027C130.037 25.6543 130.291 23.6621 130.799 21.8262C131.307 19.9902 132.068 18.3984 133.084 17.0508C134.1 15.6836 135.359 14.6191 136.863 13.8574C138.387 13.0957 140.154 12.7148 142.166 12.7148C143.65 12.7148 144.998 12.9297 146.209 13.3594C147.439 13.7891 148.494 14.4824 149.373 15.4395C150.271 16.3965 150.965 17.6562 151.453 19.2188C151.941 20.7617 152.186 22.6562 152.186 24.9023V45H142.986V24.9023C142.986 23.5156 142.811 22.4609 142.459 21.7383C142.127 21.0156 141.639 20.5176 140.994 20.2441C140.369 19.9707 139.617 19.834 138.738 19.834C137.762 19.834 136.912 20.0391 136.189 20.4492C135.467 20.8398 134.861 21.3867 134.373 22.0898C133.885 22.7734 133.523 23.584 133.289 24.5215C133.055 25.459 132.938 26.4746 132.938 27.5684Z" fill="white"/>
<path d="M187.4 19.5117V26.8945H165.311V19.5117H187.4ZM168.328 2.34375V45H158.777V2.34375H168.328ZM193.992 2.34375V45H184.471V2.34375H193.992ZM210.252 13.3008V45H201.082V13.3008H210.252ZM200.525 5.09766C200.525 3.76953 200.994 2.68555 201.932 1.8457C202.869 0.986328 204.1 0.556641 205.623 0.556641C207.146 0.556641 208.377 0.986328 209.314 1.8457C210.271 2.68555 210.75 3.76953 210.75 5.09766C210.75 6.40625 210.271 7.49023 209.314 8.34961C208.377 9.18945 207.146 9.60938 205.623 9.60938C204.1 9.60938 202.869 9.18945 201.932 8.34961C200.994 7.49023 200.525 6.40625 200.525 5.09766ZM227.947 38.5254L234.568 13.3008H244.178L233.66 45H227.889L227.947 38.5254ZM223.67 13.3008L230.262 38.5547L230.32 45H224.549L214.031 13.3008H223.67ZM262.078 45.5859C259.559 45.5859 257.303 45.1855 255.311 44.3848C253.318 43.584 251.629 42.4805 250.242 41.0742C248.875 39.6484 247.83 38.0078 247.107 36.1523C246.385 34.2969 246.023 32.3145 246.023 30.2051V29.0918C246.023 26.7285 246.355 24.5508 247.02 22.5586C247.684 20.5664 248.65 18.8379 249.92 17.373C251.209 15.8887 252.791 14.7461 254.666 13.9453C256.541 13.125 258.68 12.7148 261.082 12.7148C263.328 12.7148 265.33 13.0859 267.088 13.8281C268.846 14.5508 270.33 15.5957 271.541 16.9629C272.752 18.3105 273.67 19.9414 274.295 21.8555C274.939 23.75 275.262 25.8789 275.262 28.2422V31.9922H249.715V26.1035H266.297V25.4004C266.297 24.2871 266.092 23.3105 265.682 22.4707C265.291 21.6309 264.705 20.9863 263.924 20.5371C263.162 20.0684 262.195 19.834 261.023 19.834C259.91 19.834 258.982 20.0684 258.24 20.5371C257.498 21.0059 256.902 21.6699 256.453 22.5293C256.023 23.3691 255.711 24.3555 255.516 25.4883C255.32 26.6016 255.223 27.8027 255.223 29.0918V30.2051C255.223 31.4355 255.389 32.5586 255.721 33.5742C256.053 34.5898 256.541 35.459 257.186 36.1816C257.83 36.9043 258.611 37.4707 259.529 37.8809C260.447 38.291 261.492 38.4961 262.664 38.4961C264.109 38.4961 265.486 38.2227 266.795 37.6758C268.104 37.1094 269.236 36.2305 270.193 35.0391L274.471 39.9316C273.826 40.8691 272.918 41.7773 271.746 42.6562C270.594 43.5156 269.207 44.2188 267.586 44.7656C265.965 45.3125 264.129 45.5859 262.078 45.5859Z" fill="#61FF71"/>
</svg>
